<svg width="213" height="183" viewBox="0 0 213 183" fill="none" xmlns="http://www.w3.org/2000/svg">
<ellipse cx="106.5" cy="84.5" rx="106.5" ry="84.5" fill="black"/>
<path d="M19.533 182.268L44.0784 118.664L77.9113 147.056L19.533 182.268Z" fill="black"/>
<path d="M78.7759 106.615C67.2095 106.615 60.1343 98.3096 60.1343 83.7285C60.1343 69.1475 67.2095 60.8418 78.7759 60.8418C90.3423 60.8418 97.4175 69.1475 97.4175 83.7285C97.4175 98.3711 90.3423 106.615 78.7759 106.615ZM78.7759 98.0635C83.5132 98.0635 86.6509 93.5723 86.6509 83.7285C86.6509 74.0078 83.5132 69.332 78.7759 69.332C74.0386 69.332 70.9624 74.0078 70.9009 83.7285C70.8394 93.5723 74.0386 98.0635 78.7759 98.0635ZM149.958 55.4893V98.0635H141.038V94.0029H130.517V88.0352H141.038V55.4893H149.958ZM151.127 103.908V110.983H108.43V94.0029H116.182V86.8662C111.322 87.0508 106.677 87.1123 102.524 87.1123L101.54 80.1602C111.875 80.0371 125.718 79.9141 137.592 78.4375L138.084 84.7129C133.839 85.4512 129.44 85.9741 125.103 86.3125V96.8945H117.29V103.908H151.127ZM119.812 57.2734C128.056 57.2734 133.962 61.5186 133.962 67.4863C133.962 73.5771 128.056 77.5146 119.812 77.5146C111.445 77.5146 105.6 73.5771 105.6 67.4863C105.6 61.5186 111.445 57.2734 119.812 57.2734ZM119.812 63.7334C116.305 63.7334 113.967 64.9639 113.967 67.4863C113.967 69.9473 116.305 71.1777 119.812 71.1777C123.134 71.1777 125.534 69.9473 125.595 67.4863C125.534 64.9639 123.134 63.7334 119.812 63.7334Z" fill="white"/>
</svg>
