<svg width="auto" height="autoå" viewBox="0 0 94 87" fill="none" xmlns="http://www.w3.org/2000/svg">
<g clip-path="url(#clip0_2310_7045)">
<path d="M93.273 59.3285C93.2896 61.3708 91.7608 62.6887 90.1883 63.8425C82.9844 68.6387 74.6629 73.2179 67.1287 77.9867C60.6455 82.0691 54.1977 86.5136 46.2045 86.2526C47.3407 80.2521 44.123 40.5861 44.123 40.5861V40.5819C48.9402 40.6745 54.125 38.9818 58.0739 37.0595C62.0394 35.1225 66.3933 32.5223 70.1261 29.6527C72.6355 27.6336 77.1036 23.9765 76.736 20.692L76.8066 20.6836C80.9715 29.8 85.8032 40.7398 90.0096 50.1194C91.0462 52.4417 91.9477 54.4292 92.5397 56.0504C93.005 57.3347 93.2772 58.4021 93.273 59.3285Z" fill="#4968F6"/>
<path d="M11.4938 19.7575C11.2965 16.1383 17.5532 13.8497 20.989 11.8643C23.1805 10.7211 25.4073 9.52523 27.5469 8.31461C33.0412 5.31018 41.8051 -0.957642 47.9787 1.16883C50.1079 1.98573 52.127 3.41952 54.1607 4.62171C59.5262 7.923 65.5897 11.5991 71.0529 14.9867C72.9411 16.2204 75.0994 17.4732 76.2647 19.3133C76.5348 19.7618 76.6843 20.2228 76.7363 20.6924C77.104 23.9768 72.6358 27.6339 70.1264 29.653C66.3936 32.5227 62.0397 35.1229 58.0742 37.0599C54.1253 38.9821 48.9405 40.6749 44.1234 40.5822C41.4146 40.5296 38.8222 39.9148 36.6286 38.4557L36.6058 38.441C31.9299 35.4345 25.9245 31.7416 21.0596 28.7329C17.9229 26.7202 12.2167 23.4547 11.5104 19.9555C11.5021 19.8902 11.498 19.8228 11.4938 19.7575Z" fill="#4968F6"/>
<path d="M44.1233 40.5867C44.1233 40.5867 47.341 80.2527 46.2047 86.2532C43.415 86.1479 41.6265 85.3226 39.221 83.9772C37.0025 82.6634 33.6353 81.0612 31.2215 79.6632C23.0059 74.7176 13.4381 69.2793 5.38664 64.38C1.95294 62.1988 0.0439401 60.6282 0.951701 56.3921C1.28199 54.6803 1.80961 52.8507 2.31438 51.1011C5.15191 41.4225 8.60639 29.3732 11.4938 19.7578C11.4979 19.8231 11.5021 19.8905 11.5104 19.9557C12.2167 23.4549 17.9229 26.7204 21.0595 28.7332C25.9245 31.7418 31.9298 35.4347 36.6057 38.4413L36.6286 38.456C38.8222 39.9151 41.4146 40.5298 44.1233 40.5825V40.5867ZM29.3395 51.9033C29.3395 47.9388 28.3819 44.7238 27.202 44.7238C26.0221 44.7238 25.0666 47.9388 25.0666 51.9033C25.0666 55.8678 26.0221 59.0849 27.202 59.0849C28.3819 59.0849 29.3395 55.8699 29.3395 51.9033ZM24.9004 63.3715C25.0292 62.2788 22.8481 61.9882 21.6433 61.6682C20.3263 61.3756 18.7476 60.9229 17.4576 60.245C15.7771 59.4112 14.3085 58.0869 13.0393 56.8342C12.4161 56.2973 11.9653 55.672 11.2404 55.5099C11.0866 55.5036 10.9786 55.5794 10.9101 55.7141C10.3409 57.0742 12.1377 60.5145 13.8162 61.8493C15.7293 63.5694 18.3716 64.6369 20.8954 64.7821C22.3516 64.8621 24.4039 64.599 24.8962 63.3884L24.9004 63.3715ZM14.4788 44.7238C14.4788 40.7572 13.5233 37.5423 12.3434 37.5423C11.1635 37.5423 10.2059 40.7572 10.2059 44.7238C10.2059 48.6904 11.1635 51.9033 12.3434 51.9033C13.5233 51.9033 14.4788 48.6883 14.4788 44.7238Z" fill="#4968F6"/>
<path d="M27.2018 44.7236C28.3817 44.7236 29.3393 47.9386 29.3393 51.9031C29.3393 55.8676 28.3817 59.0847 27.2018 59.0847C26.0219 59.0847 25.0664 55.8697 25.0664 51.9031C25.0664 47.9365 26.0219 44.7236 27.2018 44.7236Z" fill="#F7FAFF"/>
<path d="M21.6434 61.6675C22.8482 61.9875 25.0293 62.2781 24.9005 63.3708L24.8964 63.3876C24.4041 64.5982 22.3517 64.8614 20.8956 64.7814C18.3717 64.6361 15.7295 63.5687 13.8163 61.8486C12.1379 60.5137 10.341 57.0735 10.9102 55.7134C10.9788 55.5786 11.0868 55.5028 11.2405 55.5092C11.9655 55.6713 12.4162 56.2966 13.0394 56.8335C14.3086 58.0862 15.7772 59.4105 17.4577 60.2442C18.7477 60.9222 20.3264 61.3748 21.6434 61.6675Z" fill="#F7FAFF"/>
<path d="M12.3436 37.542C13.5234 37.542 14.479 40.757 14.479 44.7236C14.479 48.6902 13.5234 51.903 12.3436 51.903C11.1637 51.903 10.2061 48.6881 10.2061 44.7236C10.2061 40.7591 11.1637 37.542 12.3436 37.542Z" fill="#F7FAFF"/>
<path fill-rule="evenodd" clip-rule="evenodd" d="M37.2084 2.146C40.8761 0.460938 44.8412 -0.690826 48.2132 0.470656L48.225 0.474719L48.2366 0.47919C49.8827 1.11074 51.4862 2.10818 53.008 3.05486C53.5244 3.37608 54.0314 3.69145 54.5275 3.98471L54.533 3.98797L54.5384 3.99133C56.6702 5.30293 58.9151 6.67552 61.1897 8.06629C64.6325 10.1712 68.1433 12.3178 71.4328 14.3576L71.4402 14.3622L71.4474 14.3669C71.6504 14.4996 71.8598 14.6344 72.0729 14.7717C72.8261 15.2568 73.6266 15.7724 74.3655 16.3317C75.3192 17.0537 76.2274 17.8889 76.8771 18.9148L76.8816 18.9218L76.8858 18.9289C77.2111 19.4691 77.3954 20.0329 77.4592 20.6088C77.6813 22.5925 76.4523 24.5438 75.0539 26.1366C73.6216 27.7679 71.8296 29.2234 70.579 30.2297L70.5727 30.2347L70.5663 30.2397C66.7895 33.1432 62.3929 35.7681 58.3904 37.7232L58.3895 37.7237C54.386 39.6725 49.084 41.4142 44.1101 41.3185C41.307 41.264 38.5717 40.6273 36.2346 39.0743L36.2168 39.0628C32.16 36.4543 27.0998 33.3277 22.6491 30.5777C21.9775 30.1627 21.3197 29.7563 20.6814 29.3615L20.6763 29.3583L20.6712 29.3551C20.3733 29.1639 20.0485 28.9593 19.7043 28.7424C18.2687 27.8378 16.4952 26.7202 14.9274 25.4825C13.9516 24.7122 13.0305 23.8768 12.3017 22.9919C11.5762 22.1109 11.0083 21.1412 10.7987 20.1027L10.7933 20.0761L10.7899 20.0493C10.7787 19.9618 10.7733 19.8751 10.7695 19.8156L10.7686 19.8011L10.7684 19.7977C10.706 18.6543 11.1609 17.6569 11.8501 16.8079C12.5329 15.9668 13.4767 15.2305 14.4885 14.5765C15.505 13.9195 16.63 13.3205 17.6988 12.7691C17.928 12.6509 18.154 12.5351 18.3758 12.4215C19.2008 11.9989 19.968 11.6059 20.6294 11.2237L20.6429 11.2159L20.6567 11.2087C22.8433 10.068 25.0626 8.87615 27.193 7.67072L27.1975 7.66813L27.2022 7.66561C28.0651 7.19376 29.0314 6.62685 30.0681 6.01864C32.2405 4.74417 34.722 3.28838 37.2084 2.146ZM27.8972 8.96015C25.7543 10.1725 23.5264 11.3691 21.3359 12.5119C20.6426 12.9119 19.8368 13.3246 19.0124 13.7468C18.7951 13.8581 18.5766 13.97 18.3584 14.0825C17.2939 14.6317 16.223 15.2034 15.2704 15.8191C14.3132 16.4378 13.5152 17.0763 12.973 17.7443C12.438 18.4033 12.1847 19.0482 12.2201 19.7133C12.2235 19.7675 12.226 19.8049 12.2292 19.8363C12.378 20.5388 12.7857 21.2797 13.418 22.0474C14.0558 22.8219 14.8897 23.5847 15.8209 24.3198C17.3213 25.5043 19.0093 26.5683 20.4426 27.4719C20.7938 27.6933 21.1298 27.9051 21.444 28.1066C22.0797 28.4998 22.7351 28.9047 23.4046 29.3184C27.8539 32.0676 32.9269 35.2021 36.9957 37.8183L36.9966 37.8188L37.0237 37.8364L37.028 37.8392C39.0771 39.2021 41.5251 39.7942 44.1377 39.845C48.798 39.9346 53.8658 38.2908 57.76 36.3951C61.6859 34.4774 65.9941 31.904 69.6813 29.0703C70.9393 28.058 72.6326 26.6774 73.9676 25.1569C75.3387 23.5952 76.16 22.0758 76.0144 20.775L76.0143 20.774C75.9744 20.4136 75.8608 20.0579 75.6489 19.7037C75.1333 18.8925 74.3816 18.1835 73.4954 17.5125C72.8049 16.9898 72.0673 16.5146 71.3218 16.0343C71.1037 15.8938 70.885 15.7529 70.6667 15.6102C67.3811 13.573 63.8823 11.4338 60.4467 9.33316C58.1732 7.94313 55.9274 6.57001 53.7893 5.25451C53.229 4.92314 52.6827 4.58344 52.1439 4.24847C50.6609 3.32634 49.2356 2.44006 47.7336 1.86206C44.934 0.903634 41.435 1.82231 37.8088 3.48833C35.3842 4.60226 33.0307 5.98392 30.8932 7.23878C29.8358 7.85952 28.8313 8.44923 27.8972 8.96015Z" fill="#F7FAFF"/>
<path fill-rule="evenodd" clip-rule="evenodd" d="M12.2091 19.9059L12.1904 19.9691L12.1896 19.9719C10.2831 26.3207 8.13014 33.7282 6.0698 40.817C5.0107 44.4609 3.97608 48.0206 3.012 51.309C2.50532 53.0653 1.98812 54.8609 1.66548 56.533L1.66403 56.5405L1.66243 56.548C1.23798 58.5287 1.49142 59.7606 2.14463 60.7448C2.838 61.7895 4.03719 62.6522 5.76705 63.7513C10.1099 66.3939 14.862 69.1746 19.6124 71.9543C23.6923 74.3417 27.7708 76.7283 31.5877 79.026C32.7443 79.6956 34.1264 80.4149 35.5115 81.1357L35.6268 81.1958C37.0398 81.9312 38.452 82.6681 39.5804 83.3359C41.9462 84.6587 43.6143 85.4174 46.2313 85.5163C53.4871 85.7522 59.4356 81.9868 65.5528 78.1146C65.9492 77.8637 66.3463 77.6123 66.7445 77.3615C69.9727 75.3182 73.3452 73.3096 76.7028 71.3098C77.2739 70.9696 77.8446 70.6297 78.414 70.29C82.3315 67.9526 86.1941 65.6199 89.7758 63.236C91.3702 62.0648 92.5597 60.952 92.5465 59.3347L92.5465 59.33L92.5465 59.3253C92.5501 58.5345 92.3156 57.5682 91.8581 56.3053C91.3294 54.8579 90.5469 53.1068 89.6246 51.0431C89.5338 50.8398 89.4416 50.6336 89.3482 50.4242C87.9786 47.3703 86.5435 44.1528 85.0871 40.8875C82.0675 34.1172 78.9562 27.1415 76.1474 20.9933L77.4669 20.3741C80.2784 26.5282 83.3946 33.515 86.4159 40.2887C87.8716 43.5525 89.3052 46.7667 90.672 49.8146L90.6726 49.8158C90.7675 50.0286 90.8616 50.2389 90.9544 50.4467C91.8693 52.4935 92.6744 54.2949 93.2221 55.7947L93.2227 55.7965C93.695 57.0999 94.0044 58.2668 94.0006 59.3274C94.0181 61.7873 92.158 63.3075 90.6151 64.4395L90.6018 64.4494L90.588 64.4585C86.9696 66.8676 83.0744 69.2195 79.1517 71.56C78.5803 71.901 78.0083 72.2416 77.4365 72.5822C74.0779 74.5826 70.7245 76.5799 67.5143 78.6119L67.5129 78.6128C67.0917 78.878 66.6695 79.1456 66.246 79.4141C60.212 83.2392 53.8988 87.2412 46.1816 86.9892L46.1798 86.9891L46.1779 86.9891C43.2188 86.8774 41.3107 85.987 38.87 84.6219L38.8622 84.6175L38.8545 84.613C37.7657 83.9682 36.3882 83.2488 34.9626 82.5068L34.8321 82.4389C33.4571 81.7233 32.0475 80.9897 30.861 80.3025L30.8557 80.2995L30.8505 80.2963C27.0845 78.0292 23.0043 75.6414 18.9135 73.2472C14.1331 70.4496 9.33817 67.6434 5.01267 65.0113L5.0067 65.0077L5.0008 65.0039C3.30015 63.9236 1.82994 62.9111 0.938125 61.5674C0.00637732 60.1635 -0.241282 58.4942 0.239875 56.2427C0.577092 54.4976 1.11258 52.6416 1.61368 50.9047L1.61726 50.8923L1.61771 50.8908C2.57977 47.6092 3.61341 44.0529 4.67212 40.4104C6.73354 33.3179 8.88998 25.8984 10.7981 19.5441C10.7982 19.5436 10.7984 19.5432 10.7985 19.5428L10.8163 19.4824L12.2091 19.9059Z" fill="#F7FAFF"/>
<path fill-rule="evenodd" clip-rule="evenodd" d="M43.3984 40.6471C43.3984 40.6468 43.3984 40.6467 44.123 40.5863C44.8476 40.5259 44.8476 40.5261 44.8476 40.5264L44.8568 40.6404C44.8629 40.7158 44.8719 40.8277 44.8835 40.9739C44.9068 41.2662 44.9409 41.6956 44.9838 42.2442C45.0696 43.3413 45.191 44.9151 45.333 46.8224C45.617 50.6367 45.984 55.7858 46.3154 61.1231C46.6468 66.4593 46.943 71.9889 47.0852 76.5628C47.1563 78.8492 47.1891 80.9029 47.1682 82.5771C47.1474 84.2343 47.074 85.5701 46.9184 86.3917L45.4904 86.1139C45.6189 85.4353 45.6934 84.219 45.7142 82.5584C45.7348 80.9149 45.7026 78.8852 45.6319 76.6092C45.4903 72.058 45.1952 66.5461 44.8642 61.2157C44.5333 55.8864 44.1668 50.7439 43.883 46.9333C43.7412 45.0282 43.62 43.4562 43.5343 42.3607C43.4914 41.8129 43.4574 41.3843 43.4342 41.0926C43.4226 40.9468 43.4136 40.8352 43.4076 40.7602L43.3984 40.6471Z" fill="#F7FAFF"/>
</g>
<defs>
<clipPath id="clip0_2310_7045">
<rect width="94" height="87" fill="white"/>
</clipPath>
</defs>
</svg>
